<svg width="24" height="24" viewBox="0 0 24 24" fill="none" xmlns="http://www.w3.org/2000/svg">
  <rect width="24" height="24" rx="4" fill="#116ED0" x="0" y="0"/>
<g clip-path="url(#clip0_1374_7390)">
<path fill-rule="evenodd" clip-rule="evenodd" d="M20 6H12L10.59 4.59C10.21 4.21 9.7 4 9.17 4H4C2.89 4 2.01 4.89 2.01 6L2 18C2 19.11 2.89 20 4 20H20C20.1956 20 20.3849 19.9715 20.5639 19.9185C20.448 19.8692 20.3397 19.7974 20.2456 19.7034L18.0049 17.4627C17.0882 18.0534 15.9373 18.3182 14.7253 18.0942C12.8104 17.7377 11.2827 16.1285 11.0382 14.1934C10.6512 11.1278 13.2586 8.57137 16.3447 9.06024C18.2595 9.36579 19.7975 10.9342 20.1132 12.8388C20.3067 14.0202 20.0317 15.11 19.4613 16.0165L21.7021 18.2469C21.7964 18.3413 21.8684 18.45 21.9179 18.5662C21.9713 18.3865 22 18.1964 22 18V8C22 6.9 21.1 6 20 6ZM13.0345 13.5925C13.0345 12.187 14.1753 11.0463 15.5808 11.0463C16.9864 11.0463 18.1271 12.187 18.1271 13.5925C18.1271 14.998 16.9864 16.1387 15.5808 16.1387C14.1753 16.1387 13.0345 14.998 13.0345 13.5925Z" fill="white"/>
</g>
<defs>
<clipPath id="clip0_1374_7390">
<rect width="24" height="24" fill="#0055BD"/>
</clipPath>
</defs>
</svg>
